<svg width="74" height="73" viewBox="0 0 74 73" fill="none" xmlns="http://www.w3.org/2000/svg">
<path d="M73.7994 43.7113L68.9664 34.2302C68.7866 33.8748 68.4987 33.5677 68.162 33.3445L70.3217 14.9712C70.7137 11.6696 68.4374 8.9332 64.7846 8.30867C64.1819 8.17773 62.8569 7.9089 61.3136 7.60105L61.9143 4.5082C62.0103 4.0191 61.9081 3.52134 61.6265 3.10653C61.3459 2.69302 60.9225 2.41509 60.4425 2.32562L48.634 0.0350751C48.1461 -0.0606052 47.6504 0.0410009 47.2367 0.321104C46.8257 0.599473 46.547 1.01992 46.4519 1.50583L45.8472 4.60388C44.3058 4.31352 42.9807 4.0681 42.3718 3.96433C39.4475 3.33258 36.7426 4.37711 35.4044 6.5435C35.1435 6.47976 34.8712 6.44508 34.591 6.44508H33.9868V2.60341C33.9868 2.0036 33.5012 1.51942 32.9028 1.51942H28.0886C27.9022 1.51942 27.7186 1.56712 27.5568 1.65817L25.1924 2.99076C24.6721 3.28416 24.4871 3.94467 24.7805 4.46643C25.0753 4.98819 25.7358 5.17319 26.2576 4.87979L28.3735 3.6874H31.819V6.44493H31.2148C29.3231 6.44493 27.7838 7.98565 27.7838 9.88176V11.145H26.8111C25.3571 11.145 24.1736 12.3287 24.1736 13.7825V20.9424C23.8773 20.9193 23.5897 20.8903 23.3093 20.8614C21.7599 20.7039 20.2959 20.5536 18.4517 21.4728C16.5975 22.3805 15.8243 23.632 15.0062 24.9588C14.1766 26.3015 13.2487 27.8045 10.906 29.5996C10.153 28.1094 8.95342 27.2063 7.60364 27.1181C6.4763 27.0458 5.42715 27.5618 4.79844 28.5027C4.03965 29.6402 4.03531 31.1634 4.78398 32.681C4.96465 33.0481 5.15832 33.4051 5.36644 33.7491C5.23348 33.8951 5.12074 34.0555 5.03402 34.2275L0.19526 43.7185C-0.072123 44.2532 -0.0648964 44.8213 0.21694 45.2751C0.481432 45.7029 0.95983 45.9587 1.49604 45.9587H3.20715V57.755C3.20715 58.3548 3.69277 58.839 4.29113 58.839C4.88949 58.839 5.37512 58.3548 5.37512 57.755V45.9587H30.8132C31.585 45.9587 32.4175 45.4283 32.7918 44.6955L35.915 38.5633V70.2407H5.37512V62.7644C5.37512 62.1645 4.88949 61.6804 4.29113 61.6804C3.69277 61.6804 3.20715 62.1645 3.20715 62.7644V70.6396C3.20715 71.6152 4.00062 72.4087 4.97476 72.4087H69.0244C69.9985 72.4087 70.792 71.6152 70.792 70.6396V45.9586H72.5016C73.0422 45.9586 73.522 45.7013 73.7865 45.2692C74.0668 44.8111 74.0711 44.2431 73.7994 43.7113ZM48.5213 2.22026L59.7287 4.39402L59.188 7.178C56.7769 6.70191 50.2671 5.44217 47.9776 5.00626L48.5213 2.22026ZM41.9334 6.0875C41.9502 6.09112 49.1506 7.43425 51.901 7.96975L46.9417 28.6474C46.8021 29.2296 47.1608 29.8146 47.743 29.9542C47.828 29.9746 47.913 29.9845 47.9967 29.9845C48.4865 29.9845 48.9306 29.6502 49.0499 29.153L54.0308 8.38528C56.598 8.88507 64.382 10.4394 64.3994 10.4423C66.4867 10.7926 68.4617 12.2499 68.169 14.7171L66.0239 32.9644H61.6563L63.2028 18.6491C63.2603 18.0965 62.8775 17.5739 62.3311 17.4684L57.4479 16.5217C56.8589 16.407 56.2913 16.792 56.1773 17.3795C56.0634 17.9672 56.4474 18.5361 57.0351 18.65L60.9393 19.4069L59.4739 32.9644H41.6308V15.6649L44.5609 16.2319C44.6304 16.2454 44.6998 16.2519 44.768 16.2519C45.2769 16.2519 45.7309 15.8918 45.831 15.3737C45.9448 14.786 45.5604 14.2173 44.9728 14.1035L41.6079 13.4524C41.4448 12.154 40.3367 11.145 38.9948 11.145H38.0221V9.88176C38.0221 9.05215 37.7274 8.29061 37.2376 7.69629C38.2014 6.09198 40.2135 5.70999 41.9334 6.0875ZM29.9516 9.88176C29.9516 9.18223 30.5182 8.61277 31.2148 8.61277H34.591C34.8475 8.61277 35.086 8.69038 35.2854 8.82292C35.2935 8.82885 35.3019 8.83419 35.3101 8.83997C35.6384 9.06935 35.854 9.45062 35.854 9.88176V11.145H29.9515V9.88176H29.9516ZM16.8519 26.0962C17.6107 24.8648 18.1122 24.0527 19.4114 23.4168C20.7006 22.775 21.6515 22.8719 23.0896 23.0179C24.8384 23.1971 26.9831 23.4153 30.459 22.4108L32.0661 25.667C32.0719 25.6786 32.0763 25.6901 32.082 25.7017C29.1641 26.4923 27.5511 26.2119 26.1103 25.9589C24.6838 25.7089 23.3354 25.4733 21.4421 26.4157C19.5532 27.3421 18.7698 28.6919 17.9417 30.1213C17.4445 30.9784 16.8866 31.9381 15.9977 32.9641H12.5681L11.8831 31.5766C14.7952 29.429 15.9284 27.5936 16.8519 26.0962ZM31.2495 19.2298C30.8405 18.4016 30.7943 17.6457 31.1223 17.1559C31.3261 16.8524 31.6513 16.692 32.017 16.7151C32.6038 16.7541 33.1732 17.2499 33.5823 18.078C34.9452 20.8399 35.0868 23.5137 34.6027 26.1557C34.4408 25.6642 34.2428 25.1815 34.0101 24.7089L31.2495 19.2298ZM32.3422 32.9643H18.7308C19.1687 32.3269 19.5127 31.7343 19.8162 31.2097C20.5895 29.8771 21.0982 28.9985 22.4018 28.3596C23.6635 27.7324 24.4438 27.8682 25.736 28.0951C27.2637 28.3625 29.3043 28.7181 32.7859 27.7569C33.1386 29.4435 32.9911 31.2255 32.3422 32.9643ZM6.60204 29.7065C6.79716 29.4131 7.11224 29.2585 7.46345 29.2816C8.03435 29.3177 8.59079 29.8034 8.98825 30.6084L10.1503 32.9641H7.43165C7.17872 32.5724 6.94169 32.1576 6.72923 31.724C6.33032 30.9177 6.28407 30.182 6.60204 29.7065ZM30.8622 43.7055C30.8463 43.7315 30.8196 43.7845 30.7596 43.7907H2.59144L6.96337 35.2145C6.97927 35.1885 7.00528 35.135 7.11657 35.1321H35.2312L30.8622 43.7055ZM34.6892 32.9643C36.3817 28.9334 38.5076 23.1611 35.5261 17.1183C34.7673 15.5791 33.5404 14.6427 32.1586 14.5516C31.0168 14.4764 29.9561 14.9996 29.3202 15.9507C28.5513 17.1026 28.5455 18.646 29.3043 20.1897L29.4315 20.4455C28.229 20.7663 27.2232 20.9181 26.3415 20.9745V13.7828C26.3415 13.5285 26.5569 13.3131 26.8113 13.3131H38.9948C39.2492 13.3131 39.4631 13.5285 39.4631 13.7828V32.9644H34.6892V32.9643ZM58.8974 43.7864C58.8974 43.7864 58.8974 43.7864 58.8959 43.7864C58.2976 43.7864 57.8134 44.272 57.8119 44.8704C57.8119 45.4688 58.2976 45.9544 58.8959 45.9544L68.624 45.9587V70.2407H38.0827V38.5632L41.2088 44.6954C41.5816 45.4282 42.4156 45.9586 43.1903 45.9586L53.8909 45.9543C54.4893 45.9543 54.9749 45.4686 54.9749 44.8703C54.9735 44.2719 54.4893 43.7863 53.8909 43.7863C53.8895 43.7863 53.8895 43.7863 53.8895 43.7863L43.2423 43.7906C43.1809 43.7737 43.1527 43.7313 43.1397 43.7111L38.7678 35.132H66.9359C66.9807 35.132 67.0139 35.1479 67.0342 35.2115L71.4075 43.7906L58.8974 43.7864Z" fill="black"/>
</svg>
